Coordinates
version=1
nRows=13
nColumns=34
inDegrees=yes

Units are S.I. units (second, meters, Newtons, ...)
If the header above contains a line with 'inDegrees', this indicates whether rotational values are in degrees (yes) or radians (no).

endheader
time	pelvis_tilt	pelvis_list	pelvis_rotation	pelvis_tx	pelvis_ty	pelvis_tz	hip_flexion_r	hip_adduction_r	hip_rotation_r	knee_angle_r	ankle_angle_r	subtalar_angle_r	mtp_angle_r	hip_flexion_l	hip_adduction_l	hip_rotation_l	knee_angle_l	ankle_angle_l	subtalar_angle_l	mtp_angle_l	lumbar_extension	lumbar_bending	lumbar_rotation	arm_flex_r	arm_add_r	arm_rot_r	elbow_flex_r	pro_sup_r	arm_flex_l	arm_add_l	arm_rot_l	elbow_flex_l	pro_sup_l
      7.21666670	      8.16558671	      4.80176710	     -2.09465877	      0.46989423	      0.86984667	     -0.01431407	     32.61266370	      2.89531773	     -2.43649011	     61.03772166	    -14.56589503	    -35.00000000	      0.00000000	     40.49987683	     -4.19225391	     -1.28193500	     17.40034031	     -7.42457438	    -10.42049212	      0.00000000	    -39.47965967	     -2.57825520	     -1.07970705	     51.70134528	     12.32002639	     51.66658213	    120.03714728	    112.65037834	     70.06501529	     22.18176149	     78.35836050	    126.36852906	     92.89592352
      7.23333330	      8.11475747	      4.94738493	     -1.89745132	      0.46663035	      0.88004984	     -0.01431574	     31.92434111	      2.84183189	     -2.06185522	     58.68853719	    -16.03638093	    -35.00000000	      0.00000000	     41.07610981	     -4.20651003	     -1.30395603	     18.26227586	     -7.20160174	     -9.59576452	      0.00000000	    -38.90696099	     -2.78916732	     -1.19532726	     51.25227807	     12.52462042	     51.02820759	    119.92065214	    112.62674109	     70.38934769	     22.26432617	     78.20493559	    126.26455378	     92.67273769
      7.25000000	      7.99556514	      4.96927316	     -1.64629997	      0.46762838	      0.88757146	     -0.01319922	     31.30533556	      3.01583484	     -1.90467665	     56.92386893	    -16.62856137	    -35.00000000	      0.00000000	     41.98148546	     -4.38105822	     -1.49336424	     19.79350610	     -6.95848525	     -8.47829220	      0.00000000	    -38.26549190	     -2.82865514	     -1.07894150	     50.97680743	     12.93692787	     50.61536794	    119.95553534	    112.59716247	     70.64694431	     22.42084207	     78.07802823	    126.29210584	     92.36451918
      7.26666670	      8.00587378	      5.32902260	     -1.22287810	      0.47202105	      0.89751535	     -0.01360676	     29.87045778	      2.49862650	     -1.77272228	     54.78498078	    -17.69342332	    -35.00000000	      0.00000000	     42.56642503	     -4.17349691	     -2.13600263	     21.65344541	     -6.11174088	     -6.56097489	      0.00000000	    -37.26837255	     -3.29771394	     -1.34341823	     50.49709936	     12.92275422	     50.21420021	    119.81978582	    112.53180923	     70.23797294	     22.36374600	     77.89155938	    126.07831028	     91.72840697
      7.28333330	      8.21457863	      5.90577248	     -0.81810488	      0.47379806	      0.90797441	     -0.01547620	     28.54816020	      1.73075590	     -1.28921669	     53.92532859	    -18.69166591	    -35.00000000	      0.00000000	     42.85352993	     -3.69771707	     -2.87105374	     23.60183439	     -5.12532241	     -5.36043402	      0.00000000	    -36.24511444	     -3.74522451	     -1.93446901	     49.16591681	     13.11407744	     49.59549537	    119.32429296	    112.44469373	     69.69178010	     21.95766564	     77.74117133	    125.89090098	     91.20924481
      7.30000000	      8.29747433	      6.58529814	     -0.23408700	      0.47581062	      0.91782606	     -0.01580171	     27.20859092	      0.88361884	     -0.95784936	     53.09115434	    -18.63662879	    -35.00000000	      0.00000000	     43.13776737	     -3.13717695	     -3.73060210	     25.20494678	     -4.88482538	     -4.33653075	      0.00000000	    -35.28713554	     -4.29534397	     -1.93512722	     48.01503297	     13.05737591	     48.74925517	    118.91652096	    112.27972106	     69.82758673	     22.05148025	     77.84212693	    125.96312970	     90.63357367
      7.31666670	      8.25901623	      7.19838673	      0.43624979	      0.47632223	      0.92850039	     -0.01423860	     25.92518681	      0.03749677	     -0.64553937	     51.66052348	    -19.34350387	    -35.00000000	      0.00000000	     43.38631815	     -2.54387073	     -4.30308027	     26.81552003	     -5.02304224	     -4.24636731	      0.00000000	    -34.27326726	     -4.82912209	     -1.86969645	     47.73591457	     13.01569308	     48.84820179	    118.93670694	    112.25028152	     69.86012112	     22.14787315	     77.94119369	    126.05127588	     90.53592998
      7.33333330	      7.95922947	      7.78148136	      1.11161960	      0.47626057	      0.93375757	     -0.01271816	     24.97780034	     -0.55354410	     -0.44229786	     49.75430134	    -20.20250409	    -35.00000000	      0.00000000	     43.72266268	     -2.02511557	     -4.96218078	     27.83239038	     -4.65004879	     -3.15993430	      0.00000000	    -33.21127450	     -5.42220734	     -1.24651595	     47.47995025	     12.75785124	     49.26176704	    119.64249739	    112.07145174	     70.09722150	     22.55276625	     78.74835333	    125.88117707	     90.10969875
      7.35000000	      7.85139726	      8.09601602	      1.13762415	      0.47699679	      0.94368171	     -0.01386760	     24.04439068	     -0.96960922	     -0.54448827	     47.46383667	    -21.60366916	    -35.00000000	      0.00000000	     43.67698953	     -1.94054157	     -5.51763044	     28.92663086	     -5.35490297	     -3.03065672	      0.00000000	    -32.24918616	     -6.00939973	     -0.75946573	     47.66248659	     12.72105352	     49.16995810	    119.99570066	    111.90787129	     70.25687182	     22.65837719	     78.64076525	    125.61463100	     89.72795763
      7.36666670	      7.63348286	      8.18269635	      0.96796664	      0.47772312	      0.95088908	     -0.01356222	     22.50982212	     -1.19873170	     -0.87254652	     44.31906028	    -24.03632598	    -35.00000000	      0.00000000	     43.78487005	     -2.17718745	     -6.02359189	     30.01451017	     -6.46941947	     -3.05412521	      0.00000000	    -31.33261286	     -6.40571843	     -0.30034754	     47.59312657	     12.83471534	     48.87670790	    120.54442813	    111.61615826	     70.17557484	     22.57380363	     78.49088678	    125.34028922	     89.11377547
      7.38333330	      7.63174280	      8.45733450	      0.77975090	      0.47728404	      0.95820410	     -0.01343840	     21.38849501	     -1.65714595	     -1.19198586	     42.08649405	    -27.17577245	    -35.00000000	      0.00000000	     43.96395434	     -2.27184431	     -6.49676106	     31.91088020	     -7.67279465	     -2.92415239	      0.00000000	    -30.63109287	     -6.92489668	      0.04949914	     47.69653147	     13.14837647	     48.72372936	    120.88656284	    111.42843775	     70.47353611	     22.54798330	     78.36133340	    124.99267495	     88.75010608
      7.40000000	      7.41898927	      8.71660427	      0.62510224	      0.47813645	      0.95977774	     -0.01168902	     20.51150365	     -2.09535789	     -1.54371119	     39.89497853	    -29.11545462	    -35.00000000	      0.00000000	     44.65472920	     -2.42280112	     -6.76175106	     34.19692778	     -7.78606576	     -3.41144050	      0.00000000	    -29.85412764	     -7.46537470	      0.57059534	     48.02970402	     13.46173378	     48.76170004	    121.56445289	    111.19431992	     70.80594613	     22.72157332	     78.38883144	    124.86158782	     88.32825040
      7.41666670	      7.25953248	      8.93861401	      0.49200066	      0.47957547	      0.96321176	     -0.01131749	     19.78594714	     -2.48393770	     -2.06294012	     37.70352278	    -29.42910067	    -35.00000000	      0.00000000	     45.20880047	     -2.50492199	     -6.75465550	     36.20935531	     -8.50185870	     -3.24198786	      0.00000000	    -29.12494687	     -8.11210454	      1.53819422	     48.14076729	     13.15449292	     48.75477945	    123.37113858	    107.87342837	     71.21434021	     23.39200801	     78.97849833	    124.41954318	     81.22313028
